<svg xmlns="http://www.w3.org/2000/svg" viewBox="0 0 256 256" role="img" aria-label="Tank Pokemon fallback">
  <defs>
    <radialGradient id="bg" cx="50%" cy="38%" r="64%">
      <stop offset="0" stop-color="#a7f3d0"/>
      <stop offset="1" stop-color="#22c55e"/>
    </radialGradient>
  </defs>
  <circle cx="128" cy="128" r="112" fill="url(#bg)" opacity=".24"/>
  <path d="M55 145c0-49 32-82 73-82s73 33 73 82c0 43-29 67-73 67s-73-24-73-67z" fill="#1f2937"/>
  <path d="M76 130c14-30 34-45 52-45s38 15 52 45c-28 16-76 16-104 0z" fill="#10b981"/>
  <circle cx="102" cy="146" r="9" fill="#ecfeff"/>
  <circle cx="154" cy="146" r="9" fill="#ecfeff"/>
  <path d="M86 195c29 15 55 15 84 0" fill="none" stroke="#86efac" stroke-width="10" stroke-linecap="round"/>
</svg>
